<svg xmlns="http://www.w3.org/2000/svg" viewBox="0 0 100 100" preserveAspectRatio="xMidYMid" style="shape-rendering: auto; display: block; background: transparent;" width="214" height="214" xmlns:xlink="http://www.w3.org/1999/xlink"><g><g transform="rotate(0 50 50)">
  <rect fill="#c7ccd4" height="1" width="1" ry="0" rx="0" y="30.5" x="49.5">
    <animate repeatCount="indefinite" begin="-1.1977351916376306s" dur="1.2195121951219512s" keyTimes="0;1" values="1;0" attributeName="opacity"></animate>
  </rect>
</g><g transform="rotate(6.428571428571429 50 50)">
  <rect fill="#c7ccd4" height="1" width="1" ry="0" rx="0" y="30.5" x="49.5">
    <animate repeatCount="indefinite" begin="-1.17595818815331s" dur="1.2195121951219512s" keyTimes="0;1" values="1;0" attributeName="opacity"></animate>
  </rect>
</g><g transform="rotate(12.857142857142858 50 50)">
  <rect fill="#c7ccd4" height="1" width="1" ry="0" rx="0" y="30.5" x="49.5">
    <animate repeatCount="indefinite" begin="-1.1541811846689896s" dur="1.2195121951219512s" keyTimes="0;1" values="1;0" attributeName="opacity"></animate>
  </rect>
</g><g transform="rotate(19.285714285714285 50 50)">
  <rect fill="#c7ccd4" height="1" width="1" ry="0" rx="0" y="30.5" x="49.5">
    <animate repeatCount="indefinite" begin="-1.132404181184669s" dur="1.2195121951219512s" keyTimes="0;1" values="1;0" attributeName="opacity"></animate>
  </rect>
</g><g transform="rotate(25.714285714285715 50 50)">
  <rect fill="#c7ccd4" height="1" width="1" ry="0" rx="0" y="30.5" x="49.5">
    <animate repeatCount="indefinite" begin="-1.1106271777003485s" dur="1.2195121951219512s" keyTimes="0;1" values="1;0" attributeName="opacity"></animate>
  </rect>
</g><g transform="rotate(32.142857142857146 50 50)">
  <rect fill="#c7ccd4" height="1" width="1" ry="0" rx="0" y="30.5" x="49.5">
    <animate repeatCount="indefinite" begin="-1.088850174216028s" dur="1.2195121951219512s" keyTimes="0;1" values="1;0" attributeName="opacity"></animate>
  </rect>
</g><g transform="rotate(38.57142857142857 50 50)">
  <rect fill="#c7ccd4" height="1" width="1" ry="0" rx="0" y="30.5" x="49.5">
    <animate repeatCount="indefinite" begin="-1.0670731707317074s" dur="1.2195121951219512s" keyTimes="0;1" values="1;0" attributeName="opacity"></animate>
  </rect>
</g><g transform="rotate(45 50 50)">
  <rect fill="#c7ccd4" height="1" width="1" ry="0" rx="0" y="30.5" x="49.5">
    <animate repeatCount="indefinite" begin="-1.0452961672473868s" dur="1.2195121951219512s" keyTimes="0;1" values="1;0" attributeName="opacity"></animate>
  </rect>
</g><g transform="rotate(51.42857142857143 50 50)">
  <rect fill="#c7ccd4" height="1" width="1" ry="0" rx="0" y="30.5" x="49.5">
    <animate repeatCount="indefinite" begin="-1.023519163763066s" dur="1.2195121951219512s" keyTimes="0;1" values="1;0" attributeName="opacity"></animate>
  </rect>
</g><g transform="rotate(57.857142857142854 50 50)">
  <rect fill="#c7ccd4" height="1" width="1" ry="0" rx="0" y="30.5" x="49.5">
    <animate repeatCount="indefinite" begin="-1.0017421602787455s" dur="1.2195121951219512s" keyTimes="0;1" values="1;0" attributeName="opacity"></animate>
  </rect>
</g><g transform="rotate(64.28571428571429 50 50)">
  <rect fill="#c7ccd4" height="1" width="1" ry="0" rx="0" y="30.5" x="49.5">
    <animate repeatCount="indefinite" begin="-0.9799651567944251s" dur="1.2195121951219512s" keyTimes="0;1" values="1;0" attributeName="opacity"></animate>
  </rect>
</g><g transform="rotate(70.71428571428571 50 50)">
  <rect fill="#c7ccd4" height="1" width="1" ry="0" rx="0" y="30.5" x="49.5">
    <animate repeatCount="indefinite" begin="-0.9581881533101045s" dur="1.2195121951219512s" keyTimes="0;1" values="1;0" attributeName="opacity"></animate>
  </rect>
</g><g transform="rotate(77.14285714285714 50 50)">
  <rect fill="#c7ccd4" height="1" width="1" ry="0" rx="0" y="30.5" x="49.5">
    <animate repeatCount="indefinite" begin="-0.9364111498257839s" dur="1.2195121951219512s" keyTimes="0;1" values="1;0" attributeName="opacity"></animate>
  </rect>
</g><g transform="rotate(83.57142857142857 50 50)">
  <rect fill="#c7ccd4" height="1" width="1" ry="0" rx="0" y="30.5" x="49.5">
    <animate repeatCount="indefinite" begin="-0.9146341463414633s" dur="1.2195121951219512s" keyTimes="0;1" values="1;0" attributeName="opacity"></animate>
  </rect>
</g><g transform="rotate(90 50 50)">
  <rect fill="#c7ccd4" height="1" width="1" ry="0" rx="0" y="30.5" x="49.5">
    <animate repeatCount="indefinite" begin="-0.8928571428571428s" dur="1.2195121951219512s" keyTimes="0;1" values="1;0" attributeName="opacity"></animate>
  </rect>
</g><g transform="rotate(96.42857142857143 50 50)">
  <rect fill="#c7ccd4" height="1" width="1" ry="0" rx="0" y="30.5" x="49.5">
    <animate repeatCount="indefinite" begin="-0.8710801393728222s" dur="1.2195121951219512s" keyTimes="0;1" values="1;0" attributeName="opacity"></animate>
  </rect>
</g><g transform="rotate(102.85714285714286 50 50)">
  <rect fill="#c7ccd4" height="1" width="1" ry="0" rx="0" y="30.5" x="49.5">
    <animate repeatCount="indefinite" begin="-0.8493031358885017s" dur="1.2195121951219512s" keyTimes="0;1" values="1;0" attributeName="opacity"></animate>
  </rect>
</g><g transform="rotate(109.28571428571429 50 50)">
  <rect fill="#c7ccd4" height="1" width="1" ry="0" rx="0" y="30.5" x="49.5">
    <animate repeatCount="indefinite" begin="-0.8275261324041812s" dur="1.2195121951219512s" keyTimes="0;1" values="1;0" attributeName="opacity"></animate>
  </rect>
</g><g transform="rotate(115.71428571428571 50 50)">
  <rect fill="#c7ccd4" height="1" width="1" ry="0" rx="0" y="30.5" x="49.5">
    <animate repeatCount="indefinite" begin="-0.8057491289198606s" dur="1.2195121951219512s" keyTimes="0;1" values="1;0" attributeName="opacity"></animate>
  </rect>
</g><g transform="rotate(122.14285714285714 50 50)">
  <rect fill="#c7ccd4" height="1" width="1" ry="0" rx="0" y="30.5" x="49.5">
    <animate repeatCount="indefinite" begin="-0.7839721254355401s" dur="1.2195121951219512s" keyTimes="0;1" values="1;0" attributeName="opacity"></animate>
  </rect>
</g><g transform="rotate(128.57142857142858 50 50)">
  <rect fill="#c7ccd4" height="1" width="1" ry="0" rx="0" y="30.5" x="49.5">
    <animate repeatCount="indefinite" begin="-0.7621951219512195s" dur="1.2195121951219512s" keyTimes="0;1" values="1;0" attributeName="opacity"></animate>
  </rect>
</g><g transform="rotate(135 50 50)">
  <rect fill="#c7ccd4" height="1" width="1" ry="0" rx="0" y="30.5" x="49.5">
    <animate repeatCount="indefinite" begin="-0.740418118466899s" dur="1.2195121951219512s" keyTimes="0;1" values="1;0" attributeName="opacity"></animate>
  </rect>
</g><g transform="rotate(141.42857142857142 50 50)">
  <rect fill="#c7ccd4" height="1" width="1" ry="0" rx="0" y="30.5" x="49.5">
    <animate repeatCount="indefinite" begin="-0.7186411149825783s" dur="1.2195121951219512s" keyTimes="0;1" values="1;0" attributeName="opacity"></animate>
  </rect>
</g><g transform="rotate(147.85714285714286 50 50)">
  <rect fill="#c7ccd4" height="1" width="1" ry="0" rx="0" y="30.5" x="49.5">
    <animate repeatCount="indefinite" begin="-0.6968641114982578s" dur="1.2195121951219512s" keyTimes="0;1" values="1;0" attributeName="opacity"></animate>
  </rect>
</g><g transform="rotate(154.28571428571428 50 50)">
  <rect fill="#c7ccd4" height="1" width="1" ry="0" rx="0" y="30.5" x="49.5">
    <animate repeatCount="indefinite" begin="-0.6750871080139372s" dur="1.2195121951219512s" keyTimes="0;1" values="1;0" attributeName="opacity"></animate>
  </rect>
</g><g transform="rotate(160.71428571428572 50 50)">
  <rect fill="#c7ccd4" height="1" width="1" ry="0" rx="0" y="30.5" x="49.5">
    <animate repeatCount="indefinite" begin="-0.6533101045296167s" dur="1.2195121951219512s" keyTimes="0;1" values="1;0" attributeName="opacity"></animate>
  </rect>
</g><g transform="rotate(167.14285714285714 50 50)">
  <rect fill="#c7ccd4" height="1" width="1" ry="0" rx="0" y="30.5" x="49.5">
    <animate repeatCount="indefinite" begin="-0.6315331010452961s" dur="1.2195121951219512s" keyTimes="0;1" values="1;0" attributeName="opacity"></animate>
  </rect>
</g><g transform="rotate(173.57142857142858 50 50)">
  <rect fill="#c7ccd4" height="1" width="1" ry="0" rx="0" y="30.5" x="49.5">
    <animate repeatCount="indefinite" begin="-0.6097560975609756s" dur="1.2195121951219512s" keyTimes="0;1" values="1;0" attributeName="opacity"></animate>
  </rect>
</g><g transform="rotate(180 50 50)">
  <rect fill="#c7ccd4" height="1" width="1" ry="0" rx="0" y="30.5" x="49.5">
    <animate repeatCount="indefinite" begin="-0.587979094076655s" dur="1.2195121951219512s" keyTimes="0;1" values="1;0" attributeName="opacity"></animate>
  </rect>
</g><g transform="rotate(186.42857142857142 50 50)">
  <rect fill="#c7ccd4" height="1" width="1" ry="0" rx="0" y="30.5" x="49.5">
    <animate repeatCount="indefinite" begin="-0.5662020905923345s" dur="1.2195121951219512s" keyTimes="0;1" values="1;0" attributeName="opacity"></animate>
  </rect>
</g><g transform="rotate(192.85714285714286 50 50)">
  <rect fill="#c7ccd4" height="1" width="1" ry="0" rx="0" y="30.5" x="49.5">
    <animate repeatCount="indefinite" begin="-0.544425087108014s" dur="1.2195121951219512s" keyTimes="0;1" values="1;0" attributeName="opacity"></animate>
  </rect>
</g><g transform="rotate(199.28571428571428 50 50)">
  <rect fill="#c7ccd4" height="1" width="1" ry="0" rx="0" y="30.5" x="49.5">
    <animate repeatCount="indefinite" begin="-0.5226480836236934s" dur="1.2195121951219512s" keyTimes="0;1" values="1;0" attributeName="opacity"></animate>
  </rect>
</g><g transform="rotate(205.71428571428572 50 50)">
  <rect fill="#c7ccd4" height="1" width="1" ry="0" rx="0" y="30.5" x="49.5">
    <animate repeatCount="indefinite" begin="-0.5008710801393728s" dur="1.2195121951219512s" keyTimes="0;1" values="1;0" attributeName="opacity"></animate>
  </rect>
</g><g transform="rotate(212.14285714285714 50 50)">
  <rect fill="#c7ccd4" height="1" width="1" ry="0" rx="0" y="30.5" x="49.5">
    <animate repeatCount="indefinite" begin="-0.47909407665505227s" dur="1.2195121951219512s" keyTimes="0;1" values="1;0" attributeName="opacity"></animate>
  </rect>
</g><g transform="rotate(218.57142857142858 50 50)">
  <rect fill="#c7ccd4" height="1" width="1" ry="0" rx="0" y="30.5" x="49.5">
    <animate repeatCount="indefinite" begin="-0.45731707317073167s" dur="1.2195121951219512s" keyTimes="0;1" values="1;0" attributeName="opacity"></animate>
  </rect>
</g><g transform="rotate(225 50 50)">
  <rect fill="#c7ccd4" height="1" width="1" ry="0" rx="0" y="30.5" x="49.5">
    <animate repeatCount="indefinite" begin="-0.4355400696864111s" dur="1.2195121951219512s" keyTimes="0;1" values="1;0" attributeName="opacity"></animate>
  </rect>
</g><g transform="rotate(231.42857142857142 50 50)">
  <rect fill="#c7ccd4" height="1" width="1" ry="0" rx="0" y="30.5" x="49.5">
    <animate repeatCount="indefinite" begin="-0.4137630662020906s" dur="1.2195121951219512s" keyTimes="0;1" values="1;0" attributeName="opacity"></animate>
  </rect>
</g><g transform="rotate(237.85714285714286 50 50)">
  <rect fill="#c7ccd4" height="1" width="1" ry="0" rx="0" y="30.5" x="49.5">
    <animate repeatCount="indefinite" begin="-0.39198606271777003s" dur="1.2195121951219512s" keyTimes="0;1" values="1;0" attributeName="opacity"></animate>
  </rect>
</g><g transform="rotate(244.28571428571428 50 50)">
  <rect fill="#c7ccd4" height="1" width="1" ry="0" rx="0" y="30.5" x="49.5">
    <animate repeatCount="indefinite" begin="-0.3702090592334495s" dur="1.2195121951219512s" keyTimes="0;1" values="1;0" attributeName="opacity"></animate>
  </rect>
</g><g transform="rotate(250.71428571428572 50 50)">
  <rect fill="#c7ccd4" height="1" width="1" ry="0" rx="0" y="30.5" x="49.5">
    <animate repeatCount="indefinite" begin="-0.3484320557491289s" dur="1.2195121951219512s" keyTimes="0;1" values="1;0" attributeName="opacity"></animate>
  </rect>
</g><g transform="rotate(257.14285714285717 50 50)">
  <rect fill="#c7ccd4" height="1" width="1" ry="0" rx="0" y="30.5" x="49.5">
    <animate repeatCount="indefinite" begin="-0.32665505226480834s" dur="1.2195121951219512s" keyTimes="0;1" values="1;0" attributeName="opacity"></animate>
  </rect>
</g><g transform="rotate(263.57142857142856 50 50)">
  <rect fill="#c7ccd4" height="1" width="1" ry="0" rx="0" y="30.5" x="49.5">
    <animate repeatCount="indefinite" begin="-0.3048780487804878s" dur="1.2195121951219512s" keyTimes="0;1" values="1;0" attributeName="opacity"></animate>
  </rect>
</g><g transform="rotate(270 50 50)">
  <rect fill="#c7ccd4" height="1" width="1" ry="0" rx="0" y="30.5" x="49.5">
    <animate repeatCount="indefinite" begin="-0.28310104529616725s" dur="1.2195121951219512s" keyTimes="0;1" values="1;0" attributeName="opacity"></animate>
  </rect>
</g><g transform="rotate(276.42857142857144 50 50)">
  <rect fill="#c7ccd4" height="1" width="1" ry="0" rx="0" y="30.5" x="49.5">
    <animate repeatCount="indefinite" begin="-0.2613240418118467s" dur="1.2195121951219512s" keyTimes="0;1" values="1;0" attributeName="opacity"></animate>
  </rect>
</g><g transform="rotate(282.85714285714283 50 50)">
  <rect fill="#c7ccd4" height="1" width="1" ry="0" rx="0" y="30.5" x="49.5">
    <animate repeatCount="indefinite" begin="-0.23954703832752614s" dur="1.2195121951219512s" keyTimes="0;1" values="1;0" attributeName="opacity"></animate>
  </rect>
</g><g transform="rotate(289.2857142857143 50 50)">
  <rect fill="#c7ccd4" height="1" width="1" ry="0" rx="0" y="30.5" x="49.5">
    <animate repeatCount="indefinite" begin="-0.21777003484320556s" dur="1.2195121951219512s" keyTimes="0;1" values="1;0" attributeName="opacity"></animate>
  </rect>
</g><g transform="rotate(295.7142857142857 50 50)">
  <rect fill="#c7ccd4" height="1" width="1" ry="0" rx="0" y="30.5" x="49.5">
    <animate repeatCount="indefinite" begin="-0.19599303135888502s" dur="1.2195121951219512s" keyTimes="0;1" values="1;0" attributeName="opacity"></animate>
  </rect>
</g><g transform="rotate(302.14285714285717 50 50)">
  <rect fill="#c7ccd4" height="1" width="1" ry="0" rx="0" y="30.5" x="49.5">
    <animate repeatCount="indefinite" begin="-0.17421602787456444s" dur="1.2195121951219512s" keyTimes="0;1" values="1;0" attributeName="opacity"></animate>
  </rect>
</g><g transform="rotate(308.57142857142856 50 50)">
  <rect fill="#c7ccd4" height="1" width="1" ry="0" rx="0" y="30.5" x="49.5">
    <animate repeatCount="indefinite" begin="-0.1524390243902439s" dur="1.2195121951219512s" keyTimes="0;1" values="1;0" attributeName="opacity"></animate>
  </rect>
</g><g transform="rotate(315 50 50)">
  <rect fill="#c7ccd4" height="1" width="1" ry="0" rx="0" y="30.5" x="49.5">
    <animate repeatCount="indefinite" begin="-0.13066202090592335s" dur="1.2195121951219512s" keyTimes="0;1" values="1;0" attributeName="opacity"></animate>
  </rect>
</g><g transform="rotate(321.42857142857144 50 50)">
  <rect fill="#c7ccd4" height="1" width="1" ry="0" rx="0" y="30.5" x="49.5">
    <animate repeatCount="indefinite" begin="-0.10888501742160278s" dur="1.2195121951219512s" keyTimes="0;1" values="1;0" attributeName="opacity"></animate>
  </rect>
</g><g transform="rotate(327.85714285714283 50 50)">
  <rect fill="#c7ccd4" height="1" width="1" ry="0" rx="0" y="30.5" x="49.5">
    <animate repeatCount="indefinite" begin="-0.08710801393728222s" dur="1.2195121951219512s" keyTimes="0;1" values="1;0" attributeName="opacity"></animate>
  </rect>
</g><g transform="rotate(334.2857142857143 50 50)">
  <rect fill="#c7ccd4" height="1" width="1" ry="0" rx="0" y="30.5" x="49.5">
    <animate repeatCount="indefinite" begin="-0.06533101045296168s" dur="1.2195121951219512s" keyTimes="0;1" values="1;0" attributeName="opacity"></animate>
  </rect>
</g><g transform="rotate(340.7142857142857 50 50)">
  <rect fill="#c7ccd4" height="1" width="1" ry="0" rx="0" y="30.5" x="49.5">
    <animate repeatCount="indefinite" begin="-0.04355400696864111s" dur="1.2195121951219512s" keyTimes="0;1" values="1;0" attributeName="opacity"></animate>
  </rect>
</g><g transform="rotate(347.14285714285717 50 50)">
  <rect fill="#c7ccd4" height="1" width="1" ry="0" rx="0" y="30.5" x="49.5">
    <animate repeatCount="indefinite" begin="-0.021777003484320556s" dur="1.2195121951219512s" keyTimes="0;1" values="1;0" attributeName="opacity"></animate>
  </rect>
</g><g transform="rotate(353.57142857142856 50 50)">
  <rect fill="#c7ccd4" height="1" width="1" ry="0" rx="0" y="30.5" x="49.5">
    <animate repeatCount="indefinite" begin="0s" dur="1.2195121951219512s" keyTimes="0;1" values="1;0" attributeName="opacity"></animate>
  </rect>
</g><g></g></g><!-- [ldio] generated by https://loading.io --></svg>