<svg xmlns="http://www.w3.org/2000/svg" version="1.1" xmlns:xlink="http://www.w3.org/1999/xlink" xmlns:svgjs="http://svgjs.dev/svgjs" width="100%" height="100%" viewBox="0 0 1000 600"><rect width="1000" height="600" x="0" y="0" fill="#"/><g><rect width="333.3333333333333" height="333.3333333333333" rx="13.333333333333334" ry="13.333333333333334" y="219.54105364584922" fill="#209cee" transform="matrix(0.6334924488195017,0,0,0.6334924488195017,0,55.34030880309297)" x="197.31884765625"/><path d="M352.7266145381421 314.3525011846885L352.7266145381421 314.3525011846885L355.0406969283639 314.3525011846885Q360.76656745801534 314.3525011846885 360.76656745801534 317.7939570470697L360.76656745801534 317.7939570470697L360.76656745801534 319.66302359301807Q360.76656745801534 322.3627863816102 341.77922476901574 362.82956048754045Q322.79188208001625 403.29633459347076 320.4481319668429 410.0902431493784Q318.10438185366945 416.88415170528606 315.3452836191742 435.6934880565762Q312.58618538467897 454.53249213081796 311.31047329776186 457.64760304073195Q310.0644289337962 460.7923816735975 304.0122134516776 460.7923816735975Q297.959997969559 460.7923816735975 296.50627954493245 458.5376347292788Q295.052561120306 456.2828877849601 295.052561120306 452.633757861918Q295.052561120306 448.9846279388759 295.67558330228877 442.93241245675733L295.67558330228877 442.93241245675733L296.29860548427155 437.82956410908866Q296.4172763760778 437.4142159877668 297.1886371728184 429.16658900723263Q297.959997969559 420.94862974965 297.959997969559 413.05701544453456Q297.959997969559 405.1950688623707 293.7471813104372 396.32441969985376Q289.53436465131546 387.45377053733677 278.3199653756251 366.449022687631Q267.1055660999348 345.4146071149737 260.57866705059115 334.46721734584736Q254.05176800124755 323.51982757672107 254.05176800124755 321.4430869701118L254.05176800124755 321.4430869701118Q254.05176800124755 317.0522639732806 262.44773359653954 317.0522639732806Q270.84369919183155 317.0522639732806 276.5992374444345 324.5581978800257L276.5992374444345 324.5581978800257Q284.5205194725015 335.0012363589755 295.1118965662091 356.4806677759063Q305.70327365991665 377.960099192837 306.7416439632213 377.960099192837L306.7416439632213 377.960099192837Q310.27210299445716 377.960099192837 324.4532745653037 352.83153785286413L324.4532745653037 352.83153785286413Q327.479382306363 347.4023445527283 333.234920558966 335.4759199262005Q338.96079108861744 323.51982757672107 341.3638766476939 320.40471666680713L341.3638766476939 320.40471666680713Q346.05137687404067 314.3525011846885 352.7266145381421 314.3525011846885ZM473.91926279527206 417.7148479479298L473.91926279527206 421.15630381031093Q473.91926279527206 439.0756084730543 460.2721102375536 450.1416691339868Q446.59528995688356 461.2077297949194 427.31127003836843 461.2077297949194Q407.99758239690175 461.2077297949194 396.69417995235665 456.04554600134765Q385.39077750781166 450.88336220777586 380.5846063896586 444.4157986043354L380.5846063896586 444.4157986043354Q378.38919489124305 441.3896908632761 378.38919489124305 438.24491223041053Q378.38919489124305 435.12980132049654 380.88128361917427 432.51904170075915Q383.40304007005693 429.9082820810217 386.1028028586491 429.9082820810217Q388.8322333701928 429.9082820810217 393.8164108260552 432.40037080895286L393.8164108260552 432.40037080895286L398.74125283601444 435.0111304286903Q412.2994022248782 442.01271304525886 424.28516229730917 442.01271304525886Q436.2709223697401 442.01271304525886 442.6494828043259 437.82956410908866L442.6494828043259 437.82956410908866Q451.28279018323036 432.19269674829195 451.28279018323036 422.13533866771246Q451.28279018323036 412.077980587133 442.3231378518587 404.8687239099035L442.3231378518587 404.8687239099035Q435.6479001877573 399.4395306097677 418.23294681519053 391.9335967030226Q400.8179934426238 384.42766279627745 393.8164108260552 377.75242513217603L393.8164108260552 377.75242513217603Q381.74164758476957 366.18201318106696 381.74164758476957 349.2714110986767Q381.74164758476957 332.39047673923807 394.9734520211661 321.73976419962736L394.9734520211661 321.73976419962736Q408.116253288708 311.20772255182294 430.1297037187668 311.20772255182294L430.1297037187668 311.20772255182294L430.5450518400887 311.20772255182294Q443.7768562764852 311.20772255182294 452.5881699930991 314.8568524748651Q461.39948370971297 318.50598239790713 464.81127184914254 322.6297958881742Q468.19339226562056 326.75360937844135 468.19339226562056 328.53367275553506L468.19339226562056 328.53367275553506Q468.19339226562056 333.2211729818818 465.90897759835036 335.83193260161926Q463.5948952081285 338.4426922213567 459.8567621162317 338.4426922213567L459.8567621162317 338.4426922213567Q459.3227431031036 338.4426922213567 448.0193406585586 333.9628660556709Q436.686270491062 329.4533721670335 425.23452943175914 329.4533721670335Q413.7531206495047 329.4533721670335 407.07788298540333 337.1966478573911L407.07788298540333 337.1966478573911Q403.9331043525377 340.93478094928787 403.102408109894 346.1563001887627L403.102408109894 346.1563001887627Q402.8947340492331 347.31334138387365 402.8947340492331 348.440714856033L402.8947340492331 348.440714856033Q402.8947340492331 352.6238637922032 405.2978196083096 357.31136401854997L405.2978196083096 357.31136401854997Q409.36229765267353 364.93596881710135 431.9097670958605 374.87465600587456Q454.4275688160959 384.8430109175993 461.6071577703739 391.63691947350696L461.6071577703739 391.63691947350696Q473.91926279527206 403.0886605328098 473.91926279527206 417.7148479479298L473.91926279527206 417.7148479479298Z " fill="#ffffff" transform="matrix(0.6334924488195017,0,0,0.6334924488195017,0,55.34030880309297)"/><path d="M710.391311434732 317.236709510838L710.391311434732 317.236709510838L712.6521809999492 317.236709510838Q718.2463838985 317.236709510838 718.2463838985 320.59902835141764L718.2463838985 320.59902835141764L718.2463838985 322.4251153079394Q718.2463838985 325.0627964673597 699.6956592608187 364.59902835141764Q681.1449346231377 404.13526023547564 678.855079550674 410.7729413948959Q676.5652244782102 417.41062255431626 673.8695723042971 435.78743414851914Q671.173920130384 454.1932312499684 669.9275433187898 457.236709510838Q668.710152014442 460.3091732789539 662.7971085361812 460.3091732789539Q656.8840650579202 460.3091732789539 655.4637752028477 458.10627472822927Q654.0434853477753 455.90337617750464 654.0434853477753 452.33815878620027Q654.0434853477753 448.77294139489595 654.6521809999492 442.85989791663513L654.6521809999492 442.85989791663513L655.2608766521232 437.87439067025826Q655.3768186811087 437.468593568809 656.1304418695145 429.41062255431626Q656.8840650579202 421.3816370470699 656.8840650579202 413.67149211953364Q656.8840650579202 405.99033269924377 652.7681230289347 397.32366603257714Q648.6521809999492 388.65699936591045 637.6956592608188 368.13526023547564Q626.7391375216885 347.5845355977945 620.3623259274855 336.88888342388145Q613.9855143332826 326.1932312499684 613.9855143332826 324.164245742722L613.9855143332826 324.164245742722Q613.9855143332826 319.87439067025826 622.1884128840072 319.87439067025826Q630.3913114347318 319.87439067025826 636.014499840529 327.2077240035916L636.014499840529 327.2077240035916Q643.7536302753116 337.41062255431626 654.1014563622681 358.3961298006931Q664.4492824492247 379.38163704706983 665.4637752028478 379.38163704706983L665.4637752028478 379.38163704706983Q668.9130505651667 379.38163704706983 682.7681230289347 354.8309124093887L682.7681230289347 354.8309124093887Q685.7246447680652 349.52656458330176 691.3478331738622 337.87439067025826Q696.942036072413 326.1932312499684 699.2898621593695 323.14975298909883L699.2898621593695 323.14975298909883Q703.8695723042971 317.236709510838 710.391311434732 317.236709510838ZM740.159427376761 408.01931820649014L740.159427376761 408.01931820649014L740.159427376761 413.6135211050409Q740.159427376761 428.8019269021423 746.4202969419782 437.32366603257714Q752.6811665071957 445.8164196557655 763.173920130384 445.8164196557655L763.173920130384 445.8164196557655L764.1884128840072 445.7294631340264Q775.318847666616 445.7294631340264 781.7246447680652 436.10627472822927Q788.159427376761 426.45410081518577 788.159427376761 408.6280138586641L788.159427376761 408.6280138586641L788.159427376761 404.13526023547564Q788.159427376761 390.2801877717075 782.6521809999492 381.12076748185245Q777.1449346231377 371.9613471919974 767.2608766521232 371.9613471919974L767.2608766521232 371.9613471919974L764.3043549129927 371.9613471919974Q753.695659260819 371.9613471919974 746.942036072413 381.8454051630119Q740.159427376761 391.7294631340264 740.159427376761 408.01931820649014ZM809.8405867970507 406.2801877717075L809.8405867970507 406.2801877717075L809.8405867970507 409.5555500905481Q809.8405867970507 432.77294139489595 797.2029056376305 447.14975298909883L797.2029056376305 447.14975298909883Q791.2029056376305 454.0772892209829 781.8405867970507 457.64250661228726Q772.4492824492247 461.20772400359164 762.9710215796595 461.20772400359164L762.9710215796595 461.20772400359164L759.6087027390797 461.20772400359164Q741.5797172318335 461.20772400359164 730.159427376761 446.65699936591045L730.159427376761 446.65699936591045Q721.0000070869057 434.9178689311278 721.0000070869057 413.7294631340264L721.0000070869057 413.7294631340264L721.0000070869057 408.6280138586641Q721.2029056376305 405.3816370470699 721.2029056376305 400.0772892209829L721.2029056376305 400.0772892209829Q721.2029056376305 395.0917819746061 724.3623259274855 386.01931820649014L724.3623259274855 386.01931820649014Q730.5652244782102 367.9613471919974 745.7536302753115 361.23670951083795L745.7536302753115 361.23670951083795Q754.9130505651667 357.1787384963452 763.695659260819 357.1787384963452L763.695659260819 357.1787384963452L766.942036072413 357.1787384963452Q787.2318911448767 357.1787384963452 799.6666737535725 371.64250661228726L799.6666737535725 371.64250661228726Q809.8405867970507 383.468593568809 809.8405867970507 406.2801877717075ZM847.4927607100942 448.10627472822927Q840.3333404202392 437.3816370470699 840.3333404202392 412.9178689311278Q840.3333404202392 388.45410081518577 837.3768186811087 379.5845355977945L837.3768186811087 379.5845355977945Q836.1304418695145 375.932361684751 832.5362389709637 373.0627964673597Q828.9130505651667 370.22221675721477 828.9130505651667 365.43960806156264Q828.9130505651667 360.6280138586641 832.7681230289347 357.67149211953364L832.7681230289347 357.67149211953364Q833.6087027390797 357.0627964673597 836.6521809999492 355.29468052533076Q839.6956592608187 353.4975790760554 840.7391375216885 351.9613471919974L840.7391375216885 351.9613471919974Q841.7536302753117 350.54105733692495 842.855079550674 342.1932312499684L842.855079550674 342.1932312499684Q845.318847666616 325.468593568809 851.8405867970507 325.468593568809L851.8405867970507 325.468593568809L853.3768186811087 325.468593568809Q858.5652244782102 325.468593568809 860.710152014442 329.67149211953364L860.710152014442 329.67149211953364Q861.8116012898045 331.70047762678 863.0000070869057 340.45410081518577Q864.159427376761 349.23670951083795 866.2173983912537 351.932361684751Q868.2463838985 354.6280138586641 876.5942099854565 357.5845355977945Q884.942036072413 360.5410573369249 884.942036072413 364.77294139489595Q884.942036072413 369.00482545286695 878.1304418695145 371.12076748185245L878.1304418695145 371.12076748185245Q867.92754331879 374.2801877717075 865.8985578115435 378.2801877717075L865.8985578115435 378.2801877717075Q861.1159491158912 387.52656458330176 861.1159491158912 415.67149211953364L861.1159491158912 415.67149211953364Q861.1159491158912 428.7149703804032 864.0724708550217 433.5555500905481Q867.0289925941522 438.396129800693 872.3043549129927 440.4251153079394L872.3043549129927 440.4251153079394Q872.8260940434275 440.628013858664 876.5362389709637 441.70047762678Q880.2753694057465 442.77294139489595 882.5072534637175 444.45410081518577Q884.7391375216885 446.13526023547564 884.7391375216885 449.9613471919974Q884.7391375216885 453.78743414851914 881.086963608645 456.3091732789539L881.086963608645 456.3091732789539Q877.2029056376305 458.8598979166351 870.2753694057465 458.8598979166351L870.2753694057465 458.8598979166351Q854.6811665071957 458.8598979166351 847.4927607100942 448.10627472822927ZM954.6521809999492 399.67149211953364L954.6521809999492 399.67149211953364Q961.1739201303842 399.67149211953364 965.8695723042972 396.7149703804032L965.8695723042972 396.7149703804032Q968.4202969419782 395.0917819746061 968.4202969419782 390.1932312499684L968.4202969419782 390.1932312499684L968.4202969419782 389.5845355977945Q968.4202969419782 382.25120226446114 963.92754331879 377.2077240035916Q959.4347896956015 372.164245742722 951.2029056376305 372.164245742722L951.2029056376305 372.164245742722L949.9565288260362 372.164245742722Q940.6811665071957 372.164245742722 932.9130505651667 379.0917819746061Q925.1159491158912 386.01931820649014 925.1159491158912 396.5990283514177L925.1159491158912 396.5990283514177L925.1159491158912 398.33815878620027Q925.1159491158912 401.4975790760554 929.8985578115435 401.4975790760554L929.8985578115435 401.4975790760554L930.9130505651667 401.70047762678L934.5942099854565 401.70047762678L935.2029056376305 401.6135211050409L940.7971085361812 401.2077240035916L941.5217462173407 401.0917819746061L945.2898621593697 400.77294139489595Q945.9855143332827 400.6859848731568 946.9130505651667 400.5700428441713Q947.8405867970507 400.48308632243214 950.623195492703 400.0772892209829Q953.4347896956015 399.67149211953364 954.6521809999492 399.67149211953364ZM949.2608766521232 460.7149703804032L949.2608766521232 460.7149703804032L946.9130505651667 460.7149703804032Q936.623195492703 460.59902835141764 928.159427376761 456.94685443837426L928.159427376761 456.94685443837426Q911.9565288260362 449.78743414851914 906.2463838985 432.48308632243214L906.2463838985 432.48308632243214Q903.086963608645 422.8019269021423 903.086963608645 412.9178689311278L903.086963608645 412.9178689311278L903.086963608645 408.33815878620027Q903.2029056376305 398.0483037137365 907.0579781013985 387.8454051630119L907.0579781013985 387.8454051630119Q915.0289925941522 367.26569501808433 933.2608766521232 360.5410573369249L933.2608766521232 360.5410573369249Q941.8116012898045 357.468593568809 950.7971085361812 357.468593568809L950.7971085361812 357.468593568809L953.0289925941522 357.468593568809Q967.4927607100942 357.468593568809 977.086963608645 366.396129800693Q986.6521809999492 375.32366603257714 986.6521809999492 390.6859848731568L986.6521809999492 390.6859848731568L986.6521809999492 392.7439558876496Q986.6521809999492 403.52656458330176 979.7246447680652 407.932361684751L979.7246447680652 407.932361684751Q974.4202969419782 411.29468052533076 955.405804188355 414.0483037137365Q936.4202969419782 416.77294139489595 932.6521809999492 418.01931820649014L932.6521809999492 418.01931820649014Q926.5362389709637 419.932361684751 926.5362389709637 423.6135211050409L926.5362389709637 423.6135211050409Q926.5362389709637 432.88888342388145 935.8116012898045 439.0917819746061L935.8116012898045 439.0917819746061Q941.2029056376305 442.6569993659104 952.623195492703 442.6569993659104L952.623195492703 442.6569993659104Q957.318847666616 442.6569993659104 967.2318911448767 439.87439067025826Q977.173920130384 437.06279646735976 979.7246447680652 437.06279646735976L979.7246447680652 437.06279646735976Q985.7246447680652 437.06279646735976 985.7246447680652 443.17873849634526Q985.7246447680652 449.29468052533076 974.0724708550217 455.00482545286695Q962.391311434732 460.7149703804032 949.2608766521232 460.7149703804032ZM1104.2463838985 418.2222167572148L1104.2463838985 421.5845355977945Q1104.2463838985 439.0917819746061 1090.9130505651667 449.90337617750464Q1077.550731724587 460.7149703804032 1058.7101520144422 460.7149703804032Q1039.8405867970507 460.7149703804032 1028.7971085361812 455.67149211953364Q1017.7246447680652 450.628013858664 1013.0579781013985 444.3091732789539L1013.0579781013985 444.3091732789539Q1010.9130505651667 441.3526515398235 1010.9130505651667 438.2801877717075Q1010.9130505651667 435.23670951083795 1013.3478331738625 432.6859848731568Q1015.782615782558 430.13526023547564 1018.4492824492247 430.13526023547564Q1021.086963608645 430.13526023547564 1025.9855143332827 432.5700428441713L1025.9855143332827 432.5700428441713L1030.7681230289347 435.12076748185245Q1044.014499840529 441.9613471919974 1055.7536302753117 441.9613471919974Q1067.463775202848 441.9613471919974 1073.6666737535725 437.87439067025826L1073.6666737535725 437.87439067025826Q1082.1304418695145 432.36714429344664 1082.1304418695145 422.54105733692495Q1082.1304418695145 412.7149703804032 1073.3768186811087 405.67149211953364L1073.3768186811087 405.67149211953364Q1066.855079550674 400.36714429344664 1049.8405867970507 393.0338109601133Q1032.8260940434275 385.70047762678 1025.9855143332827 379.17873849634526L1025.9855143332827 379.17873849634526Q1014.159427376761 367.87439067025826 1014.159427376761 351.35265153982346Q1014.159427376761 334.8598979166351 1027.1159491158912 324.45410081518577L1027.1159491158912 324.45410081518577Q1039.9565288260362 314.164245742722 1061.4347896956015 314.164245742722L1061.4347896956015 314.164245742722L1061.8695723042972 314.164245742722Q1074.7971085361812 314.164245742722 1083.405804188355 317.7294631340264Q1092.014499840529 321.29468052533076 1095.318847666616 325.32366603257714Q1098.6521809999492 329.3526515398235 1098.6521809999492 331.0917819746061L1098.6521809999492 331.0917819746061Q1098.6521809999492 335.67149211953364 1096.391311434732 338.22221675721477Q1094.159427376761 340.77294139489595 1090.478267956471 340.77294139489595L1090.478267956471 340.77294139489595Q1089.9855143332827 340.77294139489595 1078.9130505651667 336.396129800693Q1067.8695723042972 331.99033269924377 1056.6521809999492 331.99033269924377Q1045.4637752028477 331.99033269924377 1038.942036072413 339.55555009054814L1038.942036072413 339.55555009054814Q1035.869572304297 343.2077240035916 1035.0579781013987 348.3091732789539L1035.0579781013987 348.3091732789539Q1034.855079550674 349.43960806156264 1034.855079550674 350.54105733692495L1034.855079550674 350.54105733692495Q1034.855079550674 354.6280138586641 1037.2029056376305 359.2077240035916L1037.2029056376305 359.2077240035916Q1041.173920130384 366.65699936591045 1063.1739201303842 376.36714429344664Q1085.2029056376305 386.10627472822927 1092.2173983912537 392.7439558876496L1092.2173983912537 392.7439558876496Q1104.2463838985 403.932361684751 1104.2463838985 418.2222167572148L1104.2463838985 418.2222167572148ZM1138.5942099854567 311.2077240035916L1138.5942099854567 311.2077240035916Q1147.4637752028477 311.2077240035916 1149.695659260819 317.64250661228726L1149.695659260819 317.64250661228726Q1150.9130505651667 321.0917819746061 1150.9130505651667 342.0483037137365Q1150.9130505651667 362.9758399456206 1154.7971085361812 362.9758399456206L1154.7971085361812 362.9758399456206Q1156.1304418695145 362.9758399456206 1158.4492824492247 362.2801877717075L1158.4492824492247 362.2801877717075L1160.5942099854565 361.55555009054814Q1163.6666737535725 360.5410573369249 1166.7681230289347 359.7294631340264Q1169.8695723042972 358.9178689311278 1179.6666737535725 358.9178689311278L1179.6666737535725 358.9178689311278Q1199.2318911448767 358.9178689311278 1206.855079550674 378.88888342388145L1206.855079550674 378.88888342388145Q1212.8840650579205 394.164245742722 1212.8840650579205 444.5120718296785L1212.8840650579205 444.5120718296785Q1212.8840650579205 451.932361684751 1210.623195492703 453.99033269924377Q1208.3913114347317 456.01931820649014 1204.2173983912535 456.01931820649014L1204.2173983912535 456.01931820649014Q1197.8985578115435 456.01931820649014 1195.8695723042972 446.5410573369249L1195.8695723042972 446.5410573369249Q1195.0289925941522 442.85989791663513 1193.782615782558 417.0338109601133Q1192.5072534637175 391.2077240035916 1189.9565288260362 385.41062255431626L1189.9565288260362 385.41062255431626Q1185.6666737535725 375.32366603257714 1175.0579781013985 375.32366603257714L1175.0579781013985 375.32366603257714Q1160.5942099854565 375.32366603257714 1155.0000070869057 387.52656458330176L1155.0000070869057 387.52656458330176Q1151.7246447680652 394.36714429344664 1150.1014563622682 419.4975790760554Q1148.478267956471 444.59902835141764 1147.8695723042972 447.0627964673597L1147.8695723042972 447.0627964673597Q1145.318847666616 457.0338109601133 1137.782615782558 457.0338109601133L1137.782615782558 457.0338109601133Q1133.2898621593695 457.0338109601133 1131.1449346231377 455.00482545286695Q1129.0000070869057 452.9468544383742 1129.0000070869057 447.75844864127276L1129.0000070869057 447.75844864127276L1129.0000070869057 441.64250661228726L1129.1159491158912 438.396129800693L1129.405804188355 422.2801877717075L1129.6087027390797 409.5555500905481L1129.8116012898045 403.12076748185245L1130.1304418695145 383.87439067025826Q1130.2463838985 380.5990283514177 1130.2463838985 377.43960806156264L1130.2463838985 377.43960806156264L1130.5362389709637 358.3961298006931Q1130.5362389709637 326.1932312499684 1131.7246447680652 318.7149703804032Q1132.8840650579205 311.2077240035916 1138.5942099854567 311.2077240035916ZM1265.7536302753115 327.12076748185245L1265.7536302753115 329.0338109601133Q1265.7536302753115 339.64250661228726 1253.7246447680654 339.64250661228726L1253.7246447680654 339.64250661228726L1252.913050565167 339.64250661228726L1252.5072534637175 339.55555009054814L1249.463775202848 339.23670951083795Q1249.0579781013985 339.1497529890989 1248.7391375216885 339.1497529890989L1248.7391375216885 339.1497529890989Q1242.1304418695145 339.1497529890989 1242.1304418695145 330.0772892209829L1242.1304418695145 330.0772892209829L1242.1304418695145 328.13526023547564Q1242.1304418695145 322.5120718296785 1244.6811665071957 319.99033269924377Q1247.2029056376305 317.43960806156264 1251.000007086906 317.43960806156264L1251.000007086906 317.43960806156264L1253.318847666616 317.12076748185245L1255.6666737535725 317.12076748185245L1259.1449346231377 317.64250661228726Q1265.463775202848 317.64250661228726 1265.463775202848 324.77294139489595L1265.463775202848 324.77294139489595L1265.7536302753115 327.12076748185245ZM1262.391311434732 412.5990283514177L1262.391311434732 412.5990283514177L1266.6811665071957 443.90337617750464L1266.6811665071957 446.13526023547564L1266.5652244782102 447.14975298909883Q1266.5652244782102 453.78743414851914 1263.840586797051 456.5410573369249Q1261.086963608645 459.2656950180844 1253.1159491158915 459.2656950180844L1253.1159491158915 459.2656950180844L1251.8985578115435 459.2656950180844Q1244.768123028935 459.2656950180844 1242.8260940434275 451.52656458330176L1242.8260940434275 451.52656458330176Q1241.8116012898045 447.55555009054814 1241.8116012898045 420.8598979166351L1241.8116012898045 420.8598979166351L1241.8116012898045 377.23670951083795L1241.318847666616 370.4251153079394L1241.318847666616 368.164245742722Q1241.318847666616 363.1787384963452 1243.1449346231377 361.23670951083795Q1244.9710215796595 359.3236660325771 1248.942036072413 359.3236660325771L1248.942036072413 359.3236660325771L1252.4202969419784 359.3236660325771Q1259.6376882463262 359.3236660325771 1261.2898621593695 364.5120718296786L1261.2898621593695 364.5120718296786Q1261.9855143332827 366.7439558876496 1261.9855143332827 381.2077240035916L1261.9855143332827 381.2077240035916L1261.9855143332827 403.23670951083795L1262.304354912993 409.3526515398235Q1262.391311434732 410.5700428441713 1262.391311434732 412.5990283514177ZM1296.4492824492247 372.0483037137365Q1297.550731724587 363.90337617750464 1302.7391375216885 363.90337617750464Q1307.9565288260364 363.90337617750464 1312.2173983912535 367.3526515398235Q1316.5072534637175 370.8309124093887 1317.7246447680652 370.8309124093887Q1318.942036072413 370.8309124093887 1324.4202969419784 367.8164196557655Q1329.869572304297 364.8019269021423 1331.173920130384 364.1932312499684L1331.173920130384 364.1932312499684Q1339.4347896956015 360.5410573369249 1347.782615782558 360.5410573369249L1347.782615782558 360.5410573369249Q1363.2898621593697 360.5410573369249 1370.768123028935 370.8309124093887Q1378.2753694057465 381.12076748185245 1378.2753694057465 408.13526023547564L1378.2753694057465 408.13526023547564Q1378.2753694057465 413.6135211050409 1379.7536302753115 431.00482545286695Q1381.231891144877 448.36714429344664 1381.231891144877 448.88888342388145L1381.231891144877 448.88888342388145Q1381.231891144877 455.4975790760554 1373.5797172318335 455.4975790760554Q1365.92754331879 455.4975790760554 1363.4347896956015 447.0627964673597Q1360.9420360724132 438.5990283514177 1359.0579781013985 414.88888342388145Q1357.173920130384 391.2077240035916 1354.8260940434275 385.70047762678L1354.8260940434275 385.70047762678Q1350.449282449225 375.32366603257714 1338.8260940434275 375.32366603257714L1338.8260940434275 375.32366603257714Q1333.0289925941524 375.32366603257714 1327.782615782558 378.6859848731568Q1322.5362389709637 382.0483037137365 1319.5217462173407 388.5700428441713Q1316.5072534637175 395.0917819746061 1314.623195492703 419.43960806156264Q1312.7391375216885 443.78743414851914 1311.6087027390797 447.9613471919974Q1310.5072534637175 452.13526023547564 1308.1014563622682 454.33815878620027Q1305.695659260819 456.5410573369249 1301.4927607100944 456.5410573369249Q1297.2608766521232 456.5410573369249 1295.5797172318335 454.5410573369249Q1293.8985578115435 452.5410573369249 1293.8985578115435 446.01931820649014L1293.8985578115435 446.01931820649014L1293.8985578115435 443.4975790760554L1293.9855143332827 440.8309124093887L1294.304354912993 427.5845355977945Q1294.304354912993 424.9468544383742 1294.304354912993 422.2801877717075L1294.304354912993 422.2801877717075L1294.5072534637175 414.33815878620027Q1294.5072534637175 386.7149703804032 1296.4492824492247 372.0483037137365L1296.4492824492247 372.0483037137365Z " fill="#209cee" transform="matrix(0.6334924488195017,0,0,0.6334924488195017,0,55.34030880309297)"/></g></svg>